<svg width="32" height="32" viewBox="0 0 32 32" fill="none" xmlns="http://www.w3.org/2000/svg">
  <!-- Bag handle -->
  <path d="M11.5 12 C11.5 7.5 13.5 5.5 16 5.5 C18.5 5.5 20.5 7.5 20.5 12"
        stroke="#2d6a4f" stroke-width="1.8" stroke-linecap="round"/>

  <!-- Bag body -->
  <path d="M6 14 Q5.5 13 7 12.5 L25 12.5 Q26.5 13 26 14 L24.5 27 Q24.2 28 23 28 L9 28 Q7.8 28 7.5 27 Z"
        fill="#2d6a4f"/>

  <!-- Top band -->
  <rect x="5.5" y="11.5" width="21" height="3" rx="1.5" fill="#246040"/>

  <!-- Neural nodes -->
  <circle cx="16" cy="17"  r="1.5" fill="white" opacity="0.95"/>
  <circle cx="11" cy="20"  r="1.3" fill="white" opacity="0.85"/>
  <circle cx="21" cy="20"  r="1.3" fill="white" opacity="0.85"/>
  <circle cx="16" cy="24"  r="1.5" fill="white" opacity="0.95"/>

  <!-- Neural connections -->
  <line x1="16" y1="17" x2="11" y2="20" stroke="white" stroke-width="0.9" opacity="0.55"/>
  <line x1="16" y1="17" x2="21" y2="20" stroke="white" stroke-width="0.9" opacity="0.55"/>
  <line x1="11" y1="20" x2="16" y2="24" stroke="white" stroke-width="0.9" opacity="0.55"/>
  <line x1="21" y1="20" x2="16" y2="24" stroke="white" stroke-width="0.9" opacity="0.55"/>
</svg>
